<?xml version="1.0" standalone="no"?>
<!DOCTYPE svg PUBLIC "-//W3C//DTD SVG 1.1//EN" "http://www.w3.org/Graphics/SVG/1.1/DTD/svg11.dtd" >
<svg>
<metadata>
Created by FontForge 20090622 at Tue May 30 03:33:31 2017
 By deploy user
&#194;&#169; 2012 Klim Type Foundry. All Rights Reserved.
</metadata>
<defs>
<font id="PitchTest-Light" horiz-adv-x="614" >
  <font-face 
    font-family="Pitch Light Test"
    font-weight="300"
    font-stretch="normal"
    units-per-em="1000"
    panose-1="2 6 3 9 3 2 6 6 2 3"
    ascent="800"
    descent="-200"
    x-height="424"
    cap-height="570"
    bbox="10 -202 604 643"
    underline-thickness="25"
    underline-position="-68"
    unicode-range="U+0020-U+007A"
  />
<missing-glyph 
 />
    <glyph glyph-name=".notdef" 
 />
    <glyph glyph-name=".null" horiz-adv-x="0" 
 />
    <glyph glyph-name="nonmarkingreturn" 
 />
    <glyph glyph-name="space" unicode=" " 
 />
    <glyph glyph-name="comma" unicode="," 
d="M252 46q0 23 16 39.5t39 16.5t39 -16.5t16 -39.5q0 -19 -16 -43l-116 -177l-21 13l91 157q-22 1 -35 15.5t-13 34.5z" />
    <glyph glyph-name="hyphen" unicode="-" 
d="M185 258v33h244v-33h-244z" />
    <glyph glyph-name="period" unicode="." 
d="M252 46q0 23 16 39.5t39 16.5t39 -16.5t16 -39.5t-16 -39.5t-39 -16.5t-39 16.5t-16 39.5z" />
    <glyph glyph-name="zero" unicode="0" 
d="M70 285q0 129 65 214t172 85t172 -85t65 -214t-65 -214t-172 -85t-172 85t-65 214zM513 285q0 115 -55 192t-151 77t-151 -77t-55 -192t55 -192t151 -77t151 77t55 192z" />
    <glyph glyph-name="one" unicode="1" 
d="M108 437l192 133h43v-526l16 -16h188v-28h-449v28h198l16 16v498l-187 -129z" />
    <glyph glyph-name="two" unicode="2" 
d="M110 436l-23 17q82 131 208 131q81 0 129.5 -44.5t48.5 -117.5q0 -38 -23 -78t-47.5 -64.5t-70.5 -64.5l-212 -187h334l17 16v118h28v-162h-417v32l231 204q67 59 98 99.5t31 86.5q0 63 -40 98t-107 35q-109 0 -185 -119z" />
    <glyph glyph-name="three" unicode="3" 
d="M185 307l254 233h-338v30h373v-36l-234 -211q33 15 77 15q86 0 131.5 -46t45.5 -115q0 -63 -32 -113.5t-88.5 -82.5t-122 -52t-143.5 -31l-7 29q171 28 267 86t96 164q0 55 -38 94t-109 39q-66 0 -114 -27z" />
    <glyph glyph-name="four" unicode="4" 
d="M578 146h-145l-16 -16v-130h-31v130l-16 16h-305v29q71 83 151.5 213.5t124.5 236.5l29 -8q-51 -118 -125 -238.5t-141 -203.5h282v153h31v-153h161v-29z" />
    <glyph glyph-name="five" unicode="5" 
d="M120 -102l-7 29q82 13 144 31.5t113.5 47.5t78.5 72t27 99q0 50 -37.5 91.5t-109.5 41.5q-93 0 -164 -64h-40l14 324h342v-30h-315l-12 -267q69 66 175 66q86 0 131.5 -48.5t45.5 -113.5q0 -63 -32 -113.5t-88.5 -82.5t-122 -52t-143.5 -31z" />
    <glyph glyph-name="six" unicode="6" 
d="M309 380q87 0 147 -56.5t60 -140.5q0 -83 -60 -140t-147 -57q-54 0 -101 23.5t-74 67.5q-35 56 -35 137q0 144 98.5 255t272.5 158l11 -30q-295 -72 -351 -329q64 112 179 112zM484 183q0 71 -50.5 120t-124.5 49q-73 0 -123.5 -49t-50.5 -120t50.5 -119.5t123.5 -48.5
q74 0 124.5 48.5t50.5 119.5z" />
    <glyph glyph-name="seven" unicode="7" 
d="M125 542l-16 -16v-108h-28v152h463v-30l-302 -645l-26 12l296 635h-387z" />
    <glyph glyph-name="eight" unicode="8" 
d="M307 324q73 0 117.5 35.5t44.5 98.5q0 64 -44.5 99.5t-117.5 35.5t-117.5 -35.5t-44.5 -99.5q0 -63 44.5 -98.5t117.5 -35.5zM307 15q79 0 130 36t51 102q0 69 -49.5 104.5t-131.5 35.5t-131.5 -35.5t-49.5 -104.5q0 -66 51 -102t130 -36zM307 -14q-91 0 -152 45t-61 122
q0 63 41.5 105.5t110.5 49.5v2q-56 9 -94.5 47.5t-38.5 100.5q0 74 54.5 119t139.5 45t139.5 -45t54.5 -119q0 -62 -38.5 -100.5t-94.5 -47.5v-2q69 -7 110.5 -49.5t41.5 -105.5q0 -77 -61 -122t-152 -45z" />
    <glyph glyph-name="nine" unicode="9" 
d="M299 190q-87 0 -147 56.5t-60 140.5q0 83 60 140t147 57q54 0 101 -23.5t74 -67.5q35 -56 35 -137q0 -160 -101.5 -286t-280.5 -175l-11 30q163 40 253 145t111 235q-63 -115 -181 -115zM124 387q0 -71 50.5 -120t124.5 -49q73 0 123.5 49t50.5 120t-50.5 119.5
t-123.5 48.5q-74 0 -124.5 -48.5t-50.5 -119.5z" />
    <glyph glyph-name="A" unicode="A" 
d="M429 231l-123 309l-123 -309h246zM216 28v-28h-206v28h62l215 542h40l215 -542h62v-28h-208v28h98l10 13l-64 162h-268l-64 -162l10 -13h98z" />
    <glyph glyph-name="B" unicode="B" 
d="M191 283v-255h138q192 0 192 127q0 128 -192 128h-138zM317 311q176 0 176 116q0 115 -176 115h-126v-231h126zM413 298q62 -7 100 -45t38 -98q0 -155 -220 -155h-280v28h93l16 16v482l-16 16h-93v28h269q203 0 203 -143q0 -100 -110 -129z" />
    <glyph glyph-name="C" unicode="C" 
d="M516 102l19 -21q-78 -95 -210 -95q-116 0 -187 85t-71 214q0 130 69.5 214.5t185.5 84.5t174 -96l8 5v77h28v-175h-23q-52 159 -187 159q-104 0 -164 -76.5t-60 -192.5q0 -115 61 -192t166 -77q121 0 191 86z" />
    <glyph glyph-name="D" unicode="D" 
d="M160 28h86q132 0 202 71.5t70 185.5t-70 185.5t-202 71.5h-86v-514zM246 0h-201v28h68l16 18v480l-16 16h-68v28h201q146 0 224.5 -79t78.5 -206t-78.5 -206t-224.5 -79z" />
    <glyph glyph-name="E" unicode="E" 
d="M191 28h306l16 16v118h28v-162h-490v28h93l16 16v482l-16 16h-93v28h480v-152h-28v108l-16 16h-296v-231h176l16 16v68h28v-196h-28v68l-16 16h-176v-255z" />
    <glyph glyph-name="F" unicode="F" 
d="M352 0h-301v28h98l16 16v482l-16 16h-98v28h495v-152h-28v108l-16 16h-306v-231h186l16 16v68h28v-196h-28v68l-16 16h-186v-239l16 -16h140v-28z" />
    <glyph glyph-name="G" unicode="G" 
d="M310 554q-103 0 -164 -77t-61 -192q0 -116 58.5 -192.5t161.5 -76.5q107 0 180 112v85l-16 16h-81v28h188v-28h-45l-15 -16v-213h-31v78h-9q-28 -44 -75 -68t-96 -24q-115 0 -183 84.5t-68 214.5q0 129 70.5 214t185.5 85q112 0 170 -96l8 5v77h29v-175h-25
q-28 86 -72.5 122.5t-109.5 36.5z" />
    <glyph glyph-name="H" unicode="H" 
d="M454 526l-16 16h-68v28h199v-28h-68l-16 -16v-482l16 -16h68v-28h-199v28h68l16 16v239h-294v-239l16 -16h68v-28h-199v28h68l16 16v482l-16 16h-68v28h199v-28h-68l-16 -16v-215h294v215z" />
    <glyph glyph-name="I" unicode="I" 
d="M292 526l-16 16h-168v28h399v-28h-168l-16 -16v-482l16 -16h168v-28h-399v28h168l16 16v482z" />
    <glyph glyph-name="J" unicode="J" 
d="M419 223v303l-16 16h-158v28h299v-28h-78l-16 -16v-308q0 -116 -56.5 -174t-143.5 -58q-76 0 -130 45.5t-54 103.5q0 22 12 35t28 13q17 0 27.5 -10t10.5 -26q0 -15 -12 -24t-30 -9q11 -41 51 -69.5t97 -28.5q75 0 122 49.5t47 157.5z" />
    <glyph glyph-name="K" unicode="K" 
d="M244 28v-28h-199v28h68l16 16v482l-16 16h-68v28h199v-28h-68l-16 -16v-305l303 308l-10 13h-70v28h188v-28h-58l-219 -222l216 -292h79v-28h-202v28h66l10 13l-189 258l-114 -115v-140l16 -16h68z" />
    <glyph glyph-name="L" unicode="L" 
d="M51 570h259v-28h-103l-16 -16v-498h306l16 16v138h28v-182h-490v28h93l16 16v482l-16 16h-93v28z" />
    <glyph glyph-name="M" unicode="M" 
d="M322 171h-30l-132 371h-30v-498l16 -16h68v-28h-194v28h63l16 16v482l-16 16h-63v28h163l125 -355l125 355h161v-28h-63l-16 -16v-482l16 -16h63v-28h-194v28h68l16 16v498h-30z" />
    <glyph glyph-name="N" unicode="N" 
d="M497 0h-35l-303 537v-493l16 -16h68v-28h-198v28h68l16 16v482l-16 16h-68v28h132l290 -519v475l-16 16h-68v28h198v-28h-68l-16 -16v-526z" />
    <glyph glyph-name="O" unicode="O" 
d="M558 285q0 -129 -69 -214t-182 -85t-182 85t-69 214t69 214t182 85t182 -85t69 -214zM527 285q0 115 -59.5 192t-160.5 77t-160.5 -77t-59.5 -192t59.5 -192t160.5 -77t160.5 77t59.5 192z" />
    <glyph glyph-name="P" unicode="P" 
d="M191 542v-242h154q190 0 190 121t-190 121h-154zM347 272h-156v-228l16 -16h145v-28h-301v28h93l16 16v482l-16 16h-93v28h296q219 0 219 -149t-219 -149z" />
    <glyph glyph-name="Q" unicode="Q" 
d="M520 -51l-70 84q-61 -47 -143 -47q-113 0 -182 85t-69 214t69 214t182 85t182 -85t69 -214q0 -147 -85 -232l69 -84zM87 285q0 -115 59.5 -192t160.5 -77q70 0 124 41l-78 94l22 20l78 -95q74 77 74 209q0 115 -59.5 192t-160.5 77t-160.5 -77t-59.5 -192z" />
    <glyph glyph-name="R" unicode="R" 
d="M160 542v-242h147q190 0 190 121t-190 121h-147zM244 0h-199v28h68l16 16v482l-16 16h-68v28h264q219 0 219 -149q0 -146 -210 -149l177 -244h103v-28h-142v28l-174 244h-122v-228l16 -16h68v-28z" />
    <glyph glyph-name="S" unicode="S" 
d="M331 14q74 0 124 37t50 99q0 86 -105 112l-152 37q-77 18 -112.5 48.5t-35.5 89.5q0 67 53 107t135 40q61 0 108 -27t74 -72l8 5v80h29v-175h-24q-55 161 -195 161q-68 0 -113 -32t-45 -87q0 -44 30.5 -68.5t90.5 -39.5l156 -37q128 -31 128 -142q0 -73 -57 -118.5
t-147 -45.5q-63 0 -120 32t-82 82l-8 -5v-95h-29v185h24q29 -85 87 -128t128 -43z" />
    <glyph glyph-name="T" unicode="T" 
d="M52 570h511v-182h-28v138l-16 16h-196v-498l16 -16h118v-28h-299v28h118l16 16v498h-196l-16 -16v-138h-28v182z" />
    <glyph glyph-name="U" unicode="U" 
d="M307 -14q-83 0 -135.5 54t-52.5 138v348l-16 16h-68v28h199v-28h-68l-16 -16v-344q0 -74 43.5 -120t113.5 -46t113.5 46t43.5 120v344l-16 16h-68v28h199v-28h-68l-16 -16v-348q0 -84 -52.5 -138t-135.5 -54z" />
    <glyph glyph-name="V" unicode="V" 
d="M327 0h-40l-215 542h-62v28h208v-28h-98l-10 -13l198 -499l198 499l-10 13h-98v28h206v-28h-62z" />
    <glyph glyph-name="W" unicode="W" 
d="M328 434l100 -402h26l64 497l-10 13h-100v28h196v-28h-52l-72 -542h-74l-99 399l-99 -399h-74l-72 542h-52v28h197v-28h-100l-10 -13l64 -497h26l100 402h41z" />
    <glyph glyph-name="X" unicode="X" 
d="M532 28h72v-28h-217v28h88l10 13l-179 236l-180 -236l10 -13h88v-28h-214v28h72l207 272l-183 242h-72v28h217v-28h-88l-10 -13l155 -205l156 205l-10 13h-88v28h214v-28h-72l-183 -240z" />
    <glyph glyph-name="Y" unicode="Y" 
d="M323 221v-177l16 -16h118v-28h-299v28h118l16 16v177l-220 321h-62v28h216v-28h-98l-10 -13l192 -279l189 279l-10 13h-98v28h213v-28h-62z" />
    <glyph glyph-name="Z" unicode="Z" 
d="M105 28h389l16 16v128h30v-172h-468v35l430 507h-368l-16 -16v-118h-30v162h447v-35z" />
    <glyph glyph-name="a" unicode="a" 
d="M108 351q0 40 54.5 63.5t124.5 23.5q149 0 149 -155v-183q0 -41 14.5 -63.5t41.5 -22.5q35 0 62 39l18 -20q-33 -47 -80 -47q-37 0 -60.5 26.5t-24.5 74.5q-33 -46 -82.5 -73.5t-107.5 -27.5t-95 29.5t-37 82.5q0 57 47 89t146 49l128 22v25q0 126 -119 126
q-80 0 -126 -30q11 -3 17.5 -12.5t6.5 -19.5q0 -16 -11 -26.5t-28 -10.5t-27.5 11t-10.5 30zM406 119v111l-124 -21q-80 -13 -123 -38.5t-43 -72.5q0 -40 30 -62t71 -22q56 0 99 25t90 80z" />
    <glyph glyph-name="b" unicode="b" 
d="M160 274v-124q52 -135 181 -135q78 0 128 56.5t50 140.5t-50 140.5t-128 56.5q-129 0 -181 -135zM160 0h-114v28h68l16 16v525l-16 16h-78v28h124v-289q26 54 73.5 84t107.5 30q90 0 149.5 -64.5t59.5 -161.5q0 -96 -59.5 -161t-149.5 -65q-60 0 -107.5 30t-73.5 84v-100
z" />
    <glyph glyph-name="c" unicode="c" 
d="M424 298q0 17 12 27t26 5q-1 32 -40.5 56t-101.5 24q-85 0 -144.5 -57.5t-59.5 -140.5t56.5 -140.5t141.5 -57.5q108 0 173 70l18 -22q-70 -76 -191 -76q-99 0 -164 65t-65 161t68 161t167 65q80 0 131 -37t51 -95q0 -19 -11.5 -31.5t-28.5 -12.5q-16 0 -27 10t-11 26z
" />
    <glyph glyph-name="d" unicode="d" 
d="M454 149v124q-52 135 -181 135q-78 0 -128 -56.5t-50 -140.5t50 -140.5t128 -56.5q129 0 181 135zM310 613h174v-569l16 -16h68v-28h-114v99q-26 -54 -73.5 -84t-107.5 -30q-90 0 -149.5 64.5t-59.5 161.5t59.5 161.5t149.5 64.5q60 0 107.5 -30t73.5 -84v246l-16 16
h-128v28z" />
    <glyph glyph-name="e" unicode="e" 
d="M484 240q-11 79 -56 124.5t-119 45.5q-76 0 -129 -48t-62 -122h366zM495 62q-68 -76 -186 -76q-96 0 -160 65t-64 161t64 161t160 65q95 0 151.5 -64t56.5 -162h-401q0 -83 55 -140.5t138 -57.5q104 0 168 70z" />
    <glyph glyph-name="f" unicode="f" 
d="M239 406h213v-28h-197l-16 -16v-318l16 -16h198v-28h-389v28h129l16 16v318l-16 16h-129v28h145q0 111 59 166t147 55q73 0 120 -34t47 -88q0 -22 -11.5 -35t-27.5 -13q-17 0 -27.5 9.5t-10.5 25.5q0 15 11.5 25t30.5 9q-21 72 -132 72q-76 0 -126 -47t-50 -145z" />
    <glyph glyph-name="g" unicode="g" 
d="M429 295q0 48 -38 81t-100 33t-100 -33t-38 -81t38 -81t100 -33t100 33t38 81zM542 -59q0 -61 -67.5 -102t-174.5 -41q-104 0 -173 37t-69 102q0 62 74 108q-38 27 -38 74q0 27 20 49.5t47 31.5q-39 39 -39 95q0 61 47 102t122 41q66 0 111 -32q30 80 100 80
q33 0 58.5 -18.5t25.5 -47.5q0 -17 -11 -28t-26 -11t-25.5 10.5t-10.5 24.5q0 20 19 30q-12 11 -33 11q-49 0 -75 -71q36 -38 36 -91q0 -61 -47 -102t-122 -41q-64 0 -108 30q-59 -21 -59 -63q0 -26 18 -43.5t52 -17.5h197q69 0 110 -30t41 -87zM390 29h-232
q-70 -37 -70 -92q0 -50 60.5 -80t151.5 -30q95 0 153 32.5t58 81.5q0 43 -32 65.5t-89 22.5z" />
    <glyph glyph-name="h" unicode="h" 
d="M173 295v-251l16 -16h78v-28h-218v28h78l16 16v525l-16 16h-78v28h124v-278q22 44 66.5 73.5t96.5 29.5q70 0 110 -39.5t40 -120.5v-234l16 -16h78v-28h-218v28h78l16 16v232q0 65 -31 99t-89 34q-103 0 -163 -114z" />
    <glyph glyph-name="i" unicode="i" 
d="M337 44l16 -16h178v-28h-418v28h178l16 16v336l-16 16h-178v28h224v-380zM261 597q0 19 13 32.5t32 13.5q20 0 33 -13.5t13 -32.5t-13.5 -32t-32.5 -13t-32 13t-13 32z" />
    <glyph glyph-name="j" unicode="j" 
d="M75 -56q0 22 11.5 35t27.5 13q17 0 27.5 -10t10.5 -26q0 -14 -12 -23.5t-30 -9.5q11 -38 49 -65t95 -27q71 0 117 48t46 151v350l-16 16h-248v28h294v-399q0 -112 -54.5 -167.5t-138.5 -55.5q-73 0 -126 43t-53 99zM371 597q0 19 13 32.5t32 13.5q20 0 33 -13.5t13 -32.5
t-13.5 -32t-32.5 -13t-32 13t-13 32z" />
    <glyph glyph-name="k" unicode="k" 
d="M284 28v-28h-238v28h88l16 16v525l-16 16h-88v28h134v-443l261 213l-10 13h-87v28h216v-28h-58l-200 -162l180 -206h107v-28h-147v27l-164 188l-98 -79v-92l16 -16h88z" />
    <glyph glyph-name="l" unicode="l" 
d="M337 44l16 -16h178v-28h-418v28h178l16 16v525l-16 16h-178v28h224v-569z" />
    <glyph glyph-name="m" unicode="m" 
d="M599 0h-99v315q0 40 -17.5 67t-54.5 27q-67 0 -106 -103v-262l16 -16h53v-28h-99v315q0 40 -17.5 67t-54.5 27q-67 0 -106 -103v-262l16 -16h53v-28h-168v28h53l16 16v336l-16 16h-53v28h99v-75q13 39 41.5 64t64.5 25q87 0 100 -89q13 39 42.5 64t65.5 25
q102 0 102 -121v-273l16 -16h53v-28z" />
    <glyph glyph-name="n" unicode="n" 
d="M173 295v-251l16 -16h78v-28h-218v28h78l16 16v336l-16 16h-78v28h124v-89q22 44 66.5 73.5t96.5 29.5q70 0 110 -39.5t40 -120.5v-234l16 -16h78v-28h-218v28h78l16 16v232q0 65 -31 99t-89 34q-103 0 -163 -114z" />
    <glyph glyph-name="o" unicode="o" 
d="M83 212q0 96 64 161t160 65t160 -65t64 -161t-64 -161t-160 -65t-160 65t-64 161zM500 212q0 83 -55 140.5t-138 57.5t-138 -57.5t-55 -140.5t55 -140.5t138 -57.5t138 57.5t55 140.5z" />
    <glyph glyph-name="p" unicode="p" 
d="M160 274v-124q52 -135 181 -135q78 0 128 56.5t50 140.5t-50 140.5t-128 56.5q-129 0 -181 -135zM160 100v-244l16 -16h128v-28h-258v28h68l16 16v524l-16 16h-68v28h114v-100q26 54 73.5 84t107.5 30q90 0 149.5 -64.5t59.5 -161.5q0 -96 -59.5 -161t-149.5 -65
q-60 0 -107.5 30t-73.5 84z" />
    <glyph glyph-name="q" unicode="q" 
d="M454 274q-52 135 -181 135q-78 0 -128 -56.5t-50 -140.5t50 -140.5t128 -56.5q129 0 181 135v124zM454 100q-26 -54 -73.5 -84t-107.5 -30q-90 0 -149.5 65t-59.5 161q0 97 59.5 161.5t149.5 64.5q60 0 107.5 -30t73.5 -84v100h114v-28h-68l-16 -16v-524l16 -16h68v-28
h-258v28h128l16 16v244z" />
    <glyph glyph-name="r" unicode="r" 
d="M448 321q0 17 10.5 27t24.5 10q11 0 20 -7q2 5 2 12q0 21 -17.5 33.5t-46.5 12.5q-47 0 -102.5 -44.5t-105.5 -109.5v-211l16 -16h198v-28h-394v28h134l16 16v336l-16 16h-134v28h180v-129q112 143 208 143q49 0 74.5 -23.5t25.5 -62.5q0 -32 -16 -49.5t-38 -17.5
q-17 0 -28 10t-11 26z" />
    <glyph glyph-name="s" unicode="s" 
d="M377 191l-135 27q-69 14 -99.5 37.5t-30.5 68.5q0 50 45 82t116 32q51 0 97.5 -20t74.5 -60l7 3v63h28v-135h-26q-20 56 -70 89t-111 33q-58 0 -94.5 -23.5t-36.5 -63.5q0 -34 25 -50t78 -27l138 -28q57 -12 85 -36.5t28 -71.5q0 -56 -43 -90.5t-121 -34.5q-60 0 -111 24
t-79 63l-9 -5v-68h-28v142h26q66 -128 201 -128q63 0 98.5 25.5t35.5 71.5q0 36 -23.5 53.5t-65.5 26.5z" />
    <glyph glyph-name="t" unicode="t" 
d="M169 380l-16 16h-109v28h125v154h31v-154h282v-28h-267l-16 -16v-175q0 -102 45.5 -146t117.5 -44q102 0 159 93l21 -19q-67 -103 -180 -103q-86 0 -139.5 51.5t-53.5 162.5v180z" />
    <glyph glyph-name="u" unicode="u" 
d="M338 424h124v-380l16 -16h78v-28h-124v89q-22 -44 -66.5 -73.5t-96.5 -29.5q-70 0 -110 39.5t-40 120.5v234l-16 16h-78v28h124v-276q0 -65 31 -99t89 -34q103 0 163 114v251l-16 16h-78v28z" />
    <glyph glyph-name="v" unicode="v" 
d="M378 396v28h205v-28h-58l-200 -396h-36l-200 396h-58v28h207v-28h-97l-10 -13l177 -355l177 355l-10 13h-97z" />
    <glyph glyph-name="w" unicode="w" 
d="M328 324l79 -295h21l68 354l-10 13h-89v28h186v-28h-53l-79 -396h-65l-79 290l-79 -290h-65l-79 396h-53v28h187v-28h-89l-10 -13l68 -354h21l79 295h41z" />
    <glyph glyph-name="x" unicode="x" 
d="M487 396l-163 -177l177 -191h80v-28h-227v28h87l10 13l-146 158l-146 -158l10 -13h87v-28h-223v28h80l175 189l-165 179h-80v28h227v-28h-87l-10 -13l134 -145l134 145l-10 13h-87v28h223v-28h-80z" />
    <glyph glyph-name="y" unicode="y" 
d="M55 -127q0 18 11 29.5t27 11.5q17 0 28 -11t11 -27q0 -22 -24 -31q9 -19 43 -19q37 0 63 34t77 137l-202 399h-58v28h207v-28h-97l-10 -13l177 -357l177 357l-10 13h-97v28h205v-28h-58l-211 -418q-50 -100 -84.5 -140t-78.5 -40q-38 0 -67 21t-29 54z" />
    <glyph glyph-name="z" unicode="z" 
d="M120 28h350l16 16v113h28v-157h-428v35l379 361h-322l-16 -16v-108h-28v152h400v-35z" />
  </font>
</defs>
</svg>
